<svg width="25" height="25" viewBox="0 0 25 25" fill="none" xmlns="http://www.w3.org/2000/svg">
<g clip-path="url(#clip0_2_289)">
<g clip-path="url(#clip1_2_289)">
<path d="M11.5731 1.92554C15.1171 2.02346 17.9328 4.27575 18.8067 7.70316C19.2922 9.51479 18.9038 11.2285 18.2241 12.9422C16.8162 16.4186 14.6801 19.4543 12.4955 22.441C12.2528 22.7348 12.01 23.0775 11.7673 23.3713C11.6216 23.6161 11.476 23.6161 11.2818 23.3713C9.38843 21.0211 7.64071 18.524 6.18428 15.88C5.40752 14.4601 4.72785 12.9912 4.29092 11.4244C3.07722 7.01768 6.13573 2.46413 10.6507 1.9745C10.942 1.92553 11.2332 1.92554 11.5731 1.92554ZM14.6316 9.41687C14.6316 7.70316 13.2237 6.23427 11.5245 6.23427C9.77682 6.23427 8.41748 7.6542 8.41748 9.41687C8.41748 11.1795 9.82536 12.5995 11.5245 12.5995C13.2237 12.5505 14.6316 11.1306 14.6316 9.41687Z" stroke="#007947" stroke-miterlimit="10"/>
<path d="M14.4746 9.34494C14.4746 11.0586 13.0667 12.4786 11.3675 12.5275C9.66832 12.5275 8.26044 11.1076 8.26044 9.34494C8.26044 7.58228 9.61978 6.21132 11.3675 6.16235C13.0667 6.16235 14.4746 7.63124 14.4746 9.34494Z" stroke="#007947" stroke-miterlimit="10"/>
</g>
</g>
<defs>
<clipPath id="clip0_2_289">
<rect width="24" height="24" fill="white" transform="translate(0.0236206 0.925537)"/>
</clipPath>
<clipPath id="clip1_2_289">
<rect width="24" height="24" fill="white" transform="translate(0.0236206 0.925537)"/>
</clipPath>
</defs>
</svg>
